<svg xmlns="http://www.w3.org/2000/svg" viewBox="0 0 900 360" role="img" aria-label="Bar chart of the number of Thai Government Lottery draws recorded each year from 2006 to 2026, around 24 per year, with 2020 lower at 21 draws and 2006 and 2026 partial.">
<rect width="900" height="360" fill="transparent"/>
<line x1="40" y1="314.0" x2="884" y2="314.0" stroke="#1E2647"/><text x="34" y="318.0" text-anchor="end" font-family="monospace" font-size="10" fill="#6E769B">0</text><line x1="40" y1="242.5" x2="884" y2="242.5" stroke="#1E2647"/><text x="34" y="246.5" text-anchor="end" font-family="monospace" font-size="10" fill="#6E769B">6</text><line x1="40" y1="171.0" x2="884" y2="171.0" stroke="#1E2647"/><text x="34" y="175.0" text-anchor="end" font-family="monospace" font-size="10" fill="#6E769B">12</text><line x1="40" y1="99.5" x2="884" y2="99.5" stroke="#1E2647"/><text x="34" y="103.5" text-anchor="end" font-family="monospace" font-size="10" fill="#6E769B">18</text><line x1="40" y1="28.0" x2="884" y2="28.0" stroke="#1E2647"/><text x="34" y="32.0" text-anchor="end" font-family="monospace" font-size="10" fill="#6E769B">24</text>
<rect x="40.0" y="302.1" width="32.6" height="11.9" rx="2" fill="#9AA3C7" opacity="0.9"><title>2006: 1 draws</title></rect><rect x="80.6" y="28.0" width="32.6" height="286.0" rx="2" fill="#F2C14E" opacity="0.9"><title>2007: 24 draws</title></rect><rect x="121.1" y="28.0" width="32.6" height="286.0" rx="2" fill="#F2C14E" opacity="0.9"><title>2008: 24 draws</title></rect><rect x="161.7" y="28.0" width="32.6" height="286.0" rx="2" fill="#F2C14E" opacity="0.9"><title>2009: 24 draws</title></rect><rect x="202.3" y="28.0" width="32.6" height="286.0" rx="2" fill="#F2C14E" opacity="0.9"><title>2010: 24 draws</title></rect><rect x="242.9" y="28.0" width="32.6" height="286.0" rx="2" fill="#F2C14E" opacity="0.9"><title>2011: 24 draws</title></rect><rect x="283.4" y="28.0" width="32.6" height="286.0" rx="2" fill="#F2C14E" opacity="0.9"><title>2012: 24 draws</title></rect><rect x="324.0" y="28.0" width="32.6" height="286.0" rx="2" fill="#F2C14E" opacity="0.9"><title>2013: 24 draws</title></rect><rect x="364.6" y="28.0" width="32.6" height="286.0" rx="2" fill="#F2C14E" opacity="0.9"><title>2014: 24 draws</title></rect><rect x="405.1" y="28.0" width="32.6" height="286.0" rx="2" fill="#F2C14E" opacity="0.9"><title>2015: 24 draws</title></rect><rect x="445.7" y="28.0" width="32.6" height="286.0" rx="2" fill="#F2C14E" opacity="0.9"><title>2016: 24 draws</title></rect><rect x="486.3" y="28.0" width="32.6" height="286.0" rx="2" fill="#F2C14E" opacity="0.9"><title>2017: 24 draws</title></rect><rect x="526.9" y="28.0" width="32.6" height="286.0" rx="2" fill="#F2C14E" opacity="0.9"><title>2018: 24 draws</title></rect><rect x="567.4" y="28.0" width="32.6" height="286.0" rx="2" fill="#F2C14E" opacity="0.9"><title>2019: 24 draws</title></rect><rect x="608.0" y="63.8" width="32.6" height="250.2" rx="2" fill="#F2C14E" opacity="0.9"><title>2020: 21 draws</title></rect><rect x="648.6" y="28.0" width="32.6" height="286.0" rx="2" fill="#F2C14E" opacity="0.9"><title>2021: 24 draws</title></rect><rect x="689.1" y="28.0" width="32.6" height="286.0" rx="2" fill="#F2C14E" opacity="0.9"><title>2022: 24 draws</title></rect><rect x="729.7" y="28.0" width="32.6" height="286.0" rx="2" fill="#F2C14E" opacity="0.9"><title>2023: 24 draws</title></rect><rect x="770.3" y="39.9" width="32.6" height="274.1" rx="2" fill="#F2C14E" opacity="0.9"><title>2024: 23 draws</title></rect><rect x="810.9" y="28.0" width="32.6" height="286.0" rx="2" fill="#F2C14E" opacity="0.9"><title>2025: 24 draws</title></rect><rect x="851.4" y="182.9" width="32.6" height="131.1" rx="2" fill="#9AA3C7" opacity="0.9"><title>2026: 11 draws</title></rect>
<text x="56.3" y="330.0" text-anchor="middle" font-family="monospace" font-size="10" fill="#6E769B" transform="rotate(0)">06</text><text x="56.3" y="297.1" text-anchor="middle" font-family="monospace" font-size="9" fill="#9AA3C7">1</text><text x="96.9" y="330.0" text-anchor="middle" font-family="monospace" font-size="10" fill="#6E769B" transform="rotate(0)">07</text><text x="96.9" y="23.0" text-anchor="middle" font-family="monospace" font-size="9" fill="#9AA3C7">24</text><text x="137.4" y="330.0" text-anchor="middle" font-family="monospace" font-size="10" fill="#6E769B" transform="rotate(0)">08</text><text x="137.4" y="23.0" text-anchor="middle" font-family="monospace" font-size="9" fill="#9AA3C7">24</text><text x="178.0" y="330.0" text-anchor="middle" font-family="monospace" font-size="10" fill="#6E769B" transform="rotate(0)">09</text><text x="178.0" y="23.0" text-anchor="middle" font-family="monospace" font-size="9" fill="#9AA3C7">24</text><text x="218.6" y="330.0" text-anchor="middle" font-family="monospace" font-size="10" fill="#6E769B" transform="rotate(0)">10</text><text x="218.6" y="23.0" text-anchor="middle" font-family="monospace" font-size="9" fill="#9AA3C7">24</text><text x="259.1" y="330.0" text-anchor="middle" font-family="monospace" font-size="10" fill="#6E769B" transform="rotate(0)">11</text><text x="259.1" y="23.0" text-anchor="middle" font-family="monospace" font-size="9" fill="#9AA3C7">24</text><text x="299.7" y="330.0" text-anchor="middle" font-family="monospace" font-size="10" fill="#6E769B" transform="rotate(0)">12</text><text x="299.7" y="23.0" text-anchor="middle" font-family="monospace" font-size="9" fill="#9AA3C7">24</text><text x="340.3" y="330.0" text-anchor="middle" font-family="monospace" font-size="10" fill="#6E769B" transform="rotate(0)">13</text><text x="340.3" y="23.0" text-anchor="middle" font-family="monospace" font-size="9" fill="#9AA3C7">24</text><text x="380.9" y="330.0" text-anchor="middle" font-family="monospace" font-size="10" fill="#6E769B" transform="rotate(0)">14</text><text x="380.9" y="23.0" text-anchor="middle" font-family="monospace" font-size="9" fill="#9AA3C7">24</text><text x="421.4" y="330.0" text-anchor="middle" font-family="monospace" font-size="10" fill="#6E769B" transform="rotate(0)">15</text><text x="421.4" y="23.0" text-anchor="middle" font-family="monospace" font-size="9" fill="#9AA3C7">24</text><text x="462.0" y="330.0" text-anchor="middle" font-family="monospace" font-size="10" fill="#6E769B" transform="rotate(0)">16</text><text x="462.0" y="23.0" text-anchor="middle" font-family="monospace" font-size="9" fill="#9AA3C7">24</text><text x="502.6" y="330.0" text-anchor="middle" font-family="monospace" font-size="10" fill="#6E769B" transform="rotate(0)">17</text><text x="502.6" y="23.0" text-anchor="middle" font-family="monospace" font-size="9" fill="#9AA3C7">24</text><text x="543.1" y="330.0" text-anchor="middle" font-family="monospace" font-size="10" fill="#6E769B" transform="rotate(0)">18</text><text x="543.1" y="23.0" text-anchor="middle" font-family="monospace" font-size="9" fill="#9AA3C7">24</text><text x="583.7" y="330.0" text-anchor="middle" font-family="monospace" font-size="10" fill="#6E769B" transform="rotate(0)">19</text><text x="583.7" y="23.0" text-anchor="middle" font-family="monospace" font-size="9" fill="#9AA3C7">24</text><text x="624.3" y="330.0" text-anchor="middle" font-family="monospace" font-size="10" fill="#6E769B" transform="rotate(0)">20</text><text x="624.3" y="58.8" text-anchor="middle" font-family="monospace" font-size="9" fill="#9AA3C7">21</text><text x="664.9" y="330.0" text-anchor="middle" font-family="monospace" font-size="10" fill="#6E769B" transform="rotate(0)">21</text><text x="664.9" y="23.0" text-anchor="middle" font-family="monospace" font-size="9" fill="#9AA3C7">24</text><text x="705.4" y="330.0" text-anchor="middle" font-family="monospace" font-size="10" fill="#6E769B" transform="rotate(0)">22</text><text x="705.4" y="23.0" text-anchor="middle" font-family="monospace" font-size="9" fill="#9AA3C7">24</text><text x="746.0" y="330.0" text-anchor="middle" font-family="monospace" font-size="10" fill="#6E769B" transform="rotate(0)">23</text><text x="746.0" y="23.0" text-anchor="middle" font-family="monospace" font-size="9" fill="#9AA3C7">24</text><text x="786.6" y="330.0" text-anchor="middle" font-family="monospace" font-size="10" fill="#6E769B" transform="rotate(0)">24</text><text x="786.6" y="34.9" text-anchor="middle" font-family="monospace" font-size="9" fill="#9AA3C7">23</text><text x="827.1" y="330.0" text-anchor="middle" font-family="monospace" font-size="10" fill="#6E769B" transform="rotate(0)">25</text><text x="827.1" y="23.0" text-anchor="middle" font-family="monospace" font-size="9" fill="#9AA3C7">24</text><text x="867.7" y="330.0" text-anchor="middle" font-family="monospace" font-size="10" fill="#6E769B" transform="rotate(0)">26</text><text x="867.7" y="177.9" text-anchor="middle" font-family="monospace" font-size="9" fill="#9AA3C7">11</text>
<text x="40" y="14" font-family="monospace" font-size="12" fill="#F5F7FA">Recorded draws per year · 464 draws · 2006–2026</text>
<text x="884" y="14" text-anchor="end" font-family="monospace" font-size="10" fill="#6E769B">grey = partial year</text>
</svg>