<svg xmlns="http://www.w3.org/2000/svg" viewBox="0 0 900 380" role="img" aria-label="Bar chart of how often each last-two-digit number 00 to 99 has won the Thai lottery last-two prize across 464 draws; the distribution is roughly flat around the average.">
<rect width="900" height="380" fill="transparent"/>
<text x="36" y="338.0" text-anchor="end" font-family="monospace" font-size="11" fill="#6E769B">0</text><line x1="44" y1="334.0" x2="884" y2="334.0" stroke="#1E2647" stroke-width="1"/><text x="36" y="282.7" text-anchor="end" font-family="monospace" font-size="11" fill="#6E769B">2</text><line x1="44" y1="278.7" x2="884" y2="278.7" stroke="#1E2647" stroke-width="1"/><text x="36" y="227.5" text-anchor="end" font-family="monospace" font-size="11" fill="#6E769B">4</text><line x1="44" y1="223.5" x2="884" y2="223.5" stroke="#1E2647" stroke-width="1"/><text x="36" y="172.2" text-anchor="end" font-family="monospace" font-size="11" fill="#6E769B">6</text><line x1="44" y1="168.2" x2="884" y2="168.2" stroke="#1E2647" stroke-width="1"/><text x="36" y="116.9" text-anchor="end" font-family="monospace" font-size="11" fill="#6E769B">8</text><line x1="44" y1="112.9" x2="884" y2="112.9" stroke="#1E2647" stroke-width="1"/><text x="36" y="61.6" text-anchor="end" font-family="monospace" font-size="11" fill="#6E769B">10</text><line x1="44" y1="57.6" x2="884" y2="57.6" stroke="#1E2647" stroke-width="1"/>
<rect x="44.0" y="251.1" width="7.6" height="82.9" fill="#F2C14E" opacity="0.85"><title>00: drawn 3×</title></rect><rect x="52.4" y="278.7" width="7.6" height="55.3" fill="#F2C14E" opacity="0.85"><title>01: drawn 2×</title></rect><rect x="60.8" y="140.5" width="7.6" height="193.5" fill="#F2C14E" opacity="0.85"><title>02: drawn 7×</title></rect><rect x="69.2" y="251.1" width="7.6" height="82.9" fill="#F2C14E" opacity="0.85"><title>03: drawn 3×</title></rect><rect x="77.6" y="306.4" width="7.6" height="27.6" fill="#F2C14E" opacity="0.85"><title>04: drawn 1×</title></rect><rect x="86.0" y="112.9" width="7.6" height="221.1" fill="#F2C14E" opacity="0.85"><title>05: drawn 8×</title></rect><rect x="94.4" y="85.3" width="7.6" height="248.7" fill="#F2C14E" opacity="0.85"><title>06: drawn 9×</title></rect><rect x="102.8" y="168.2" width="7.6" height="165.8" fill="#F2C14E" opacity="0.85"><title>07: drawn 6×</title></rect><rect x="111.2" y="195.8" width="7.6" height="138.2" fill="#F2C14E" opacity="0.85"><title>08: drawn 5×</title></rect><rect x="119.6" y="140.5" width="7.6" height="193.5" fill="#F2C14E" opacity="0.85"><title>09: drawn 7×</title></rect><rect x="128.0" y="251.1" width="7.6" height="82.9" fill="#F2C14E" opacity="0.85"><title>10: drawn 3×</title></rect><rect x="136.4" y="168.2" width="7.6" height="165.8" fill="#F2C14E" opacity="0.85"><title>11: drawn 6×</title></rect><rect x="144.8" y="251.1" width="7.6" height="82.9" fill="#F2C14E" opacity="0.85"><title>12: drawn 3×</title></rect><rect x="153.2" y="334.0" width="7.6" height="0.0" fill="#F2C14E" opacity="0.85"><title>13: drawn 0×</title></rect><rect x="161.6" y="112.9" width="7.6" height="221.1" fill="#F2C14E" opacity="0.85"><title>14: drawn 8×</title></rect><rect x="170.0" y="168.2" width="7.6" height="165.8" fill="#F2C14E" opacity="0.85"><title>15: drawn 6×</title></rect><rect x="178.4" y="251.1" width="7.6" height="82.9" fill="#F2C14E" opacity="0.85"><title>16: drawn 3×</title></rect><rect x="186.8" y="278.7" width="7.6" height="55.3" fill="#F2C14E" opacity="0.85"><title>17: drawn 2×</title></rect><rect x="195.2" y="223.5" width="7.6" height="110.5" fill="#F2C14E" opacity="0.85"><title>18: drawn 4×</title></rect><rect x="203.6" y="278.7" width="7.6" height="55.3" fill="#F2C14E" opacity="0.85"><title>19: drawn 2×</title></rect><rect x="212.0" y="168.2" width="7.6" height="165.8" fill="#F2C14E" opacity="0.85"><title>20: drawn 6×</title></rect><rect x="220.4" y="251.1" width="7.6" height="82.9" fill="#F2C14E" opacity="0.85"><title>21: drawn 3×</title></rect><rect x="228.8" y="195.8" width="7.6" height="138.2" fill="#F2C14E" opacity="0.85"><title>22: drawn 5×</title></rect><rect x="237.2" y="223.5" width="7.6" height="110.5" fill="#F2C14E" opacity="0.85"><title>23: drawn 4×</title></rect><rect x="245.6" y="278.7" width="7.6" height="55.3" fill="#F2C14E" opacity="0.85"><title>24: drawn 2×</title></rect><rect x="254.0" y="168.2" width="7.6" height="165.8" fill="#F2C14E" opacity="0.85"><title>25: drawn 6×</title></rect><rect x="262.4" y="140.5" width="7.6" height="193.5" fill="#F2C14E" opacity="0.85"><title>26: drawn 7×</title></rect><rect x="270.8" y="251.1" width="7.6" height="82.9" fill="#F2C14E" opacity="0.85"><title>27: drawn 3×</title></rect><rect x="279.2" y="195.8" width="7.6" height="138.2" fill="#F2C14E" opacity="0.85"><title>28: drawn 5×</title></rect><rect x="287.6" y="195.8" width="7.6" height="138.2" fill="#F2C14E" opacity="0.85"><title>29: drawn 5×</title></rect><rect x="296.0" y="251.1" width="7.6" height="82.9" fill="#F2C14E" opacity="0.85"><title>30: drawn 3×</title></rect><rect x="304.4" y="223.5" width="7.6" height="110.5" fill="#F2C14E" opacity="0.85"><title>31: drawn 4×</title></rect><rect x="312.8" y="168.2" width="7.6" height="165.8" fill="#F2C14E" opacity="0.85"><title>32: drawn 6×</title></rect><rect x="321.2" y="195.8" width="7.6" height="138.2" fill="#F2C14E" opacity="0.85"><title>33: drawn 5×</title></rect><rect x="329.6" y="278.7" width="7.6" height="55.3" fill="#F2C14E" opacity="0.85"><title>34: drawn 2×</title></rect><rect x="338.0" y="195.8" width="7.6" height="138.2" fill="#F2C14E" opacity="0.85"><title>35: drawn 5×</title></rect><rect x="346.4" y="195.8" width="7.6" height="138.2" fill="#F2C14E" opacity="0.85"><title>36: drawn 5×</title></rect><rect x="354.8" y="223.5" width="7.6" height="110.5" fill="#F2C14E" opacity="0.85"><title>37: drawn 4×</title></rect><rect x="363.2" y="168.2" width="7.6" height="165.8" fill="#F2C14E" opacity="0.85"><title>38: drawn 6×</title></rect><rect x="371.6" y="251.1" width="7.6" height="82.9" fill="#F2C14E" opacity="0.85"><title>39: drawn 3×</title></rect><rect x="380.0" y="251.1" width="7.6" height="82.9" fill="#F2C14E" opacity="0.85"><title>40: drawn 3×</title></rect><rect x="388.4" y="278.7" width="7.6" height="55.3" fill="#F2C14E" opacity="0.85"><title>41: drawn 2×</title></rect><rect x="396.8" y="195.8" width="7.6" height="138.2" fill="#F2C14E" opacity="0.85"><title>42: drawn 5×</title></rect><rect x="405.2" y="223.5" width="7.6" height="110.5" fill="#F2C14E" opacity="0.85"><title>43: drawn 4×</title></rect><rect x="413.6" y="195.8" width="7.6" height="138.2" fill="#F2C14E" opacity="0.85"><title>44: drawn 5×</title></rect><rect x="422.0" y="223.5" width="7.6" height="110.5" fill="#F2C14E" opacity="0.85"><title>45: drawn 4×</title></rect><rect x="430.4" y="140.5" width="7.6" height="193.5" fill="#F2C14E" opacity="0.85"><title>46: drawn 7×</title></rect><rect x="438.8" y="223.5" width="7.6" height="110.5" fill="#F2C14E" opacity="0.85"><title>47: drawn 4×</title></rect><rect x="447.2" y="223.5" width="7.6" height="110.5" fill="#F2C14E" opacity="0.85"><title>48: drawn 4×</title></rect><rect x="455.6" y="278.7" width="7.6" height="55.3" fill="#F2C14E" opacity="0.85"><title>49: drawn 2×</title></rect><rect x="464.0" y="112.9" width="7.6" height="221.1" fill="#F2C14E" opacity="0.85"><title>50: drawn 8×</title></rect><rect x="472.4" y="195.8" width="7.6" height="138.2" fill="#F2C14E" opacity="0.85"><title>51: drawn 5×</title></rect><rect x="480.8" y="168.2" width="7.6" height="165.8" fill="#F2C14E" opacity="0.85"><title>52: drawn 6×</title></rect><rect x="489.2" y="168.2" width="7.6" height="165.8" fill="#F2C14E" opacity="0.85"><title>53: drawn 6×</title></rect><rect x="497.6" y="223.5" width="7.6" height="110.5" fill="#F2C14E" opacity="0.85"><title>54: drawn 4×</title></rect><rect x="506.0" y="251.1" width="7.6" height="82.9" fill="#F2C14E" opacity="0.85"><title>55: drawn 3×</title></rect><rect x="514.4" y="195.8" width="7.6" height="138.2" fill="#F2C14E" opacity="0.85"><title>56: drawn 5×</title></rect><rect x="522.8" y="168.2" width="7.6" height="165.8" fill="#F2C14E" opacity="0.85"><title>57: drawn 6×</title></rect><rect x="531.2" y="140.5" width="7.6" height="193.5" fill="#F2C14E" opacity="0.85"><title>58: drawn 7×</title></rect><rect x="539.6" y="195.8" width="7.6" height="138.2" fill="#F2C14E" opacity="0.85"><title>59: drawn 5×</title></rect><rect x="548.0" y="223.5" width="7.6" height="110.5" fill="#F2C14E" opacity="0.85"><title>60: drawn 4×</title></rect><rect x="556.4" y="168.2" width="7.6" height="165.8" fill="#F2C14E" opacity="0.85"><title>61: drawn 6×</title></rect><rect x="564.8" y="140.5" width="7.6" height="193.5" fill="#F2C14E" opacity="0.85"><title>62: drawn 7×</title></rect><rect x="573.2" y="195.8" width="7.6" height="138.2" fill="#F2C14E" opacity="0.85"><title>63: drawn 5×</title></rect><rect x="581.6" y="168.2" width="7.6" height="165.8" fill="#F2C14E" opacity="0.85"><title>64: drawn 6×</title></rect><rect x="590.0" y="168.2" width="7.6" height="165.8" fill="#F2C14E" opacity="0.85"><title>65: drawn 6×</title></rect><rect x="598.4" y="223.5" width="7.6" height="110.5" fill="#F2C14E" opacity="0.85"><title>66: drawn 4×</title></rect><rect x="606.8" y="195.8" width="7.6" height="138.2" fill="#F2C14E" opacity="0.85"><title>67: drawn 5×</title></rect><rect x="615.2" y="278.7" width="7.6" height="55.3" fill="#F2C14E" opacity="0.85"><title>68: drawn 2×</title></rect><rect x="623.6" y="168.2" width="7.6" height="165.8" fill="#F2C14E" opacity="0.85"><title>69: drawn 6×</title></rect><rect x="632.0" y="223.5" width="7.6" height="110.5" fill="#F2C14E" opacity="0.85"><title>70: drawn 4×</title></rect><rect x="640.4" y="223.5" width="7.6" height="110.5" fill="#F2C14E" opacity="0.85"><title>71: drawn 4×</title></rect><rect x="648.8" y="306.4" width="7.6" height="27.6" fill="#F2C14E" opacity="0.85"><title>72: drawn 1×</title></rect><rect x="657.2" y="223.5" width="7.6" height="110.5" fill="#F2C14E" opacity="0.85"><title>73: drawn 4×</title></rect><rect x="665.6" y="306.4" width="7.6" height="27.6" fill="#F2C14E" opacity="0.85"><title>74: drawn 1×</title></rect><rect x="674.0" y="278.7" width="7.6" height="55.3" fill="#F2C14E" opacity="0.85"><title>75: drawn 2×</title></rect><rect x="682.4" y="251.1" width="7.6" height="82.9" fill="#F2C14E" opacity="0.85"><title>76: drawn 3×</title></rect><rect x="690.8" y="195.8" width="7.6" height="138.2" fill="#F2C14E" opacity="0.85"><title>77: drawn 5×</title></rect><rect x="699.2" y="223.5" width="7.6" height="110.5" fill="#F2C14E" opacity="0.85"><title>78: drawn 4×</title></rect><rect x="707.6" y="30.0" width="7.6" height="304.0" fill="#F2C14E" opacity="0.85"><title>79: drawn 11×</title></rect><rect x="716.0" y="251.1" width="7.6" height="82.9" fill="#F2C14E" opacity="0.85"><title>80: drawn 3×</title></rect><rect x="724.4" y="140.5" width="7.6" height="193.5" fill="#F2C14E" opacity="0.85"><title>81: drawn 7×</title></rect><rect x="732.8" y="223.5" width="7.6" height="110.5" fill="#F2C14E" opacity="0.85"><title>82: drawn 4×</title></rect><rect x="741.2" y="168.2" width="7.6" height="165.8" fill="#F2C14E" opacity="0.85"><title>83: drawn 6×</title></rect><rect x="749.6" y="306.4" width="7.6" height="27.6" fill="#F2C14E" opacity="0.85"><title>84: drawn 1×</title></rect><rect x="758.0" y="57.6" width="7.6" height="276.4" fill="#F2C14E" opacity="0.85"><title>85: drawn 10×</title></rect><rect x="766.4" y="195.8" width="7.6" height="138.2" fill="#F2C14E" opacity="0.85"><title>86: drawn 5×</title></rect><rect x="774.8" y="195.8" width="7.6" height="138.2" fill="#F2C14E" opacity="0.85"><title>87: drawn 5×</title></rect><rect x="783.2" y="223.5" width="7.6" height="110.5" fill="#F2C14E" opacity="0.85"><title>88: drawn 4×</title></rect><rect x="791.6" y="195.8" width="7.6" height="138.2" fill="#F2C14E" opacity="0.85"><title>89: drawn 5×</title></rect><rect x="800.0" y="195.8" width="7.6" height="138.2" fill="#F2C14E" opacity="0.85"><title>90: drawn 5×</title></rect><rect x="808.4" y="223.5" width="7.6" height="110.5" fill="#F2C14E" opacity="0.85"><title>91: drawn 4×</title></rect><rect x="816.8" y="112.9" width="7.6" height="221.1" fill="#F2C14E" opacity="0.85"><title>92: drawn 8×</title></rect><rect x="825.2" y="223.5" width="7.6" height="110.5" fill="#F2C14E" opacity="0.85"><title>93: drawn 4×</title></rect><rect x="833.6" y="223.5" width="7.6" height="110.5" fill="#F2C14E" opacity="0.85"><title>94: drawn 4×</title></rect><rect x="842.0" y="140.5" width="7.6" height="193.5" fill="#F2C14E" opacity="0.85"><title>95: drawn 7×</title></rect><rect x="850.4" y="223.5" width="7.6" height="110.5" fill="#F2C14E" opacity="0.85"><title>96: drawn 4×</title></rect><rect x="858.8" y="195.8" width="7.6" height="138.2" fill="#F2C14E" opacity="0.85"><title>97: drawn 5×</title></rect><rect x="867.2" y="112.9" width="7.6" height="221.1" fill="#F2C14E" opacity="0.85"><title>98: drawn 8×</title></rect><rect x="875.6" y="251.1" width="7.6" height="82.9" fill="#F2C14E" opacity="0.85"><title>99: drawn 3×</title></rect>
<line x1="44" y1="205.8" x2="884" y2="205.8" stroke="#9AA3C7" stroke-width="1" stroke-dasharray="5 4"/>
<text x="884" y="199.8" text-anchor="end" font-family="monospace" font-size="11" fill="#9AA3C7">average ≈ 4.6</text>
<text x="44.0" y="352.0" text-anchor="middle" font-family="monospace" font-size="11" fill="#6E769B">00</text><text x="128.0" y="352.0" text-anchor="middle" font-family="monospace" font-size="11" fill="#6E769B">10</text><text x="212.0" y="352.0" text-anchor="middle" font-family="monospace" font-size="11" fill="#6E769B">20</text><text x="296.0" y="352.0" text-anchor="middle" font-family="monospace" font-size="11" fill="#6E769B">30</text><text x="380.0" y="352.0" text-anchor="middle" font-family="monospace" font-size="11" fill="#6E769B">40</text><text x="464.0" y="352.0" text-anchor="middle" font-family="monospace" font-size="11" fill="#6E769B">50</text><text x="548.0" y="352.0" text-anchor="middle" font-family="monospace" font-size="11" fill="#6E769B">60</text><text x="632.0" y="352.0" text-anchor="middle" font-family="monospace" font-size="11" fill="#6E769B">70</text><text x="716.0" y="352.0" text-anchor="middle" font-family="monospace" font-size="11" fill="#6E769B">80</text><text x="800.0" y="352.0" text-anchor="middle" font-family="monospace" font-size="11" fill="#6E769B">90</text><text x="884.0" y="352.0" text-anchor="middle" font-family="monospace" font-size="11" fill="#6E769B">100</text>
<text x="44" y="16" font-family="monospace" font-size="12" fill="#F5F7FA">Last-2 digit wins by number (00–99) · 464 draws · ['2006-12-30', '2026-06-01']</text>
</svg>